# xmcd CD database file generated by Grip 2.96
# 
# Track frame offsets:
#       150
#       17644
#       34264
#       50924
#       67730
#       82829
#       96063
#       110653
#       128320
#       142224
#       159567
#       176121
#       191235
#       207909
#       224146
#       241056
#       255518
#       272496
#       287459
#       303051
# 
# Disc length: 4238 seconds
# 
# Revision: 0
# Processed by: cddbd v1.4b42PL1 Copyright (c) Steve Scherf et al.
# Submitted via: Grip 2.96
# 
DISCID=1c108c14
DTITLE=Various Artist - Bravo Hits 31  2/2
DYEAR=1900
DGENRE=
TTITLE0=??? -  - Track: 1
TTITLE1=??? -  - Track: 2
TTITLE2=??? -  - Track: 3
TTITLE3=??? -  - Track: 4
TTITLE4=??? -  - Track: 5
TTITLE5=??? -  - Track: 6
TTITLE6=Track: 7
TTITLE7=Track: 8
TTITLE8=Track: 9
TTITLE9=Track: 10
TTITLE10=Track: 11
TTITLE11=Track: 12
TTITLE12=Track: 13
TTITLE13=Track: 14
TTITLE14=Track: 15
TTITLE15=Track: 16
TTITLE16=Track: 17
TTITLE17=Track: 18
TTITLE18=Track: 19
TTITLE19=Track: 20
EXTD=
EXTT0=
EXTT1=
EXTT2=
EXTT3=
EXTT4=
EXTT5=
EXTT6=
EXTT7=
EXTT8=
EXTT9=
EXTT10=
EXTT11=
EXTT12=
EXTT13=
EXTT14=
EXTT15=
EXTT16=
EXTT17=
EXTT18=
EXTT19=
PLAYORDER=
